<svg xmlns="http://www.w3.org/2000/svg" width="28" height="28" fill="none" viewBox="0 0 28 28">
    <g clip-path="url(#prefix__clip0)">
        <path fill="#75715E" d="M1.625 11.031L14 26.891.438 17.047c-.375-.281-.532-.766-.391-1.203l1.578-4.813zm7.219 0h10.312L14 26.891 8.844 11.03zM5.75 1.47l3.094 9.562H1.625L4.719 1.47c.172-.485.86-.485 1.031 0zm20.625 9.562l1.578 4.813c.14.437-.015.922-.39 1.203L14 26.89l12.375-15.86zm0 0h-7.219L22.25 1.47c.172-.485.86-.485 1.031 0l3.094 9.562z"/>
    </g>
    <defs>
        <clipPath id="prefix__clip0">
            <path fill="#fff" d="M0 0H28V28H0z"/>
        </clipPath>
    </defs>
</svg>
