<svg xmlns="http://www.w3.org/2000/svg" width="24" height="28" fill="none" viewBox="0 0 24 28">
    <path fill="#75715E" d="M3.703 22.094h3.61V11.25h-3.61v10.844zM7.547 7.906C7.53 6.844 6.766 6.031 5.53 6.031c-1.234 0-2.047.813-2.047 1.875 0 1.031.782 1.875 2 1.875H5.5c1.266 0 2.047-.844 2.047-1.875zm9.14 14.188h3.61v-6.219c0-3.328-1.781-4.875-4.156-4.875-1.938 0-2.797 1.078-3.266 1.828h.031V11.25h-3.61s.048 1.016 0 10.844h3.61V16.03c0-.312.016-.64.11-.875.265-.64.859-1.312 1.859-1.312 1.297 0 1.813.984 1.813 2.453v5.797zM24 6.5v15c0 2.484-2.016 4.5-4.5 4.5h-15C2.016 26 0 23.984 0 21.5v-15C0 4.016 2.016 2 4.5 2h15C21.984 2 24 4.016 24 6.5z"/>
</svg>
