<svg width="4" height="16" viewBox="0 0 4 16" fill="none" xmlns="http://www.w3.org/2000/svg">
<path d="M3.98459 4.40178C4.01063 4.29464 4.00021 4.17856 3.95855 4.08928L2.13563 0.660705C2.10438 0.607127 2.06271 0.571424 2.01584 0.571424C1.96896 0.571424 1.92209 0.607143 1.89084 0.660705L0.0418848 4.08928C0.000222101 4.17856 -0.0101959 4.29464 0.0158445 4.40178C0.0418848 4.5 0.0991791 4.57142 0.166882 4.57142H1.33355V15.7143C1.33355 15.875 1.40647 16 1.50022 16H2.50021C2.59397 16 2.66688 15.875 2.66688 15.7143V4.57142H3.83355C3.90126 4.57142 3.95855 4.50892 3.98459 4.40178Z" fill="#272822"/>
</svg>
